<svg width="1067" height="200" viewBox="0 0 1067 200" fill="none" xmlns="http://www.w3.org/2000/svg">
<rect width="200" height="200" fill="#E4F222"/>
<path d="M105.111 42.4087C105.514 38.9715 101.475 37.0992 99.4048 39.7573L46.0911 108.179C44.3281 110.434 45.8315 113.865 48.5785 113.865H96.3298C98.2773 113.865 99.7875 115.689 99.5415 117.76L94.8948 157.598C94.4848 161.029 98.5165 162.901 100.594 160.243L153.907 91.8205C155.67 89.5655 154.167 86.1352 151.42 86.1352H103.669C101.721 86.1352 100.211 84.3107 100.457 82.2402L105.111 42.4087Z" stroke="black" stroke-width="16.072" stroke-linecap="round" stroke-linejoin="round"/>
<path d="M298.49 72.4995C303.945 72.4995 308.795 73.7119 313.038 76.1365C317.281 78.4746 320.572 81.9818 322.91 86.658C325.334 91.2476 326.547 96.7897 326.547 103.284V145.5H308.362V105.752C308.362 100.037 306.933 95.664 304.075 92.6331C301.217 89.5156 297.321 87.9569 292.385 87.9569C287.362 87.9569 283.379 89.5156 280.434 92.6331C277.577 95.664 276.148 100.037 276.148 105.752V145.5H257.963V49.3784H276.148V82.5014C278.486 79.3839 281.603 76.9592 285.5 75.2273C289.397 73.4088 293.727 72.4995 298.49 72.4995ZM402.292 73.5387L357.739 179.532H338.384L353.972 143.681L325.135 73.5387H345.529L364.103 123.808L382.938 73.5387H402.292ZM419.889 83.9302C422.227 80.6395 425.431 77.9118 429.501 75.7469C433.658 73.4954 438.377 72.3696 443.66 72.3696C449.808 72.3696 455.35 73.885 460.286 76.9159C465.309 79.9468 469.249 84.2766 472.106 89.9053C475.051 95.4475 476.523 101.899 476.523 109.26C476.523 116.62 475.051 123.158 472.106 128.874C469.249 134.502 465.309 138.875 460.286 141.993C455.35 145.11 449.808 146.669 443.66 146.669C438.377 146.669 433.701 145.587 429.631 143.422C425.648 141.257 422.4 138.529 419.889 135.238V179.792H401.704V73.5387H419.889V83.9302ZM457.948 109.26C457.948 104.93 457.039 101.206 455.22 98.0887C453.488 94.8846 451.15 92.4599 448.206 90.8146C445.348 89.1693 442.231 88.3466 438.853 88.3466C435.563 88.3466 432.445 89.2126 429.501 90.9445C426.643 92.5898 424.305 95.0145 422.487 98.2185C420.755 101.423 419.889 105.19 419.889 109.519C419.889 113.849 420.755 117.616 422.487 120.82C424.305 124.024 426.643 126.492 429.501 128.224C432.445 129.869 435.563 130.692 438.853 130.692C442.231 130.692 445.348 129.826 448.206 128.094C451.15 126.362 453.488 123.894 455.22 120.69C457.039 117.486 457.948 113.676 457.948 109.26ZM546.241 107.961C546.241 110.558 546.068 112.897 545.722 114.975H493.115C493.548 120.171 495.366 124.241 498.57 127.185C501.774 130.129 505.714 131.601 510.391 131.601C517.145 131.601 521.951 128.7 524.809 122.898H544.423C542.345 129.826 538.361 135.541 532.473 140.044C526.584 144.461 519.353 146.669 510.78 146.669C503.853 146.669 497.618 145.154 492.075 142.123C486.62 139.005 482.333 134.632 479.216 129.003C476.185 123.375 474.67 116.88 474.67 109.519C474.67 102.072 476.185 95.5341 479.216 89.9053C482.247 84.2766 486.49 79.9468 491.946 76.9159C497.401 73.885 503.679 72.3696 510.78 72.3696C517.621 72.3696 523.726 73.8417 529.095 76.786C534.551 79.7303 538.751 83.9302 541.695 89.3857C544.726 94.7547 546.241 100.946 546.241 107.961ZM527.407 102.765C527.32 98.0886 525.631 94.365 522.341 91.5939C519.05 88.7363 515.023 87.3074 510.261 87.3074C505.758 87.3074 501.947 88.693 498.83 91.4641C495.799 94.1485 493.937 97.9155 493.245 102.765H527.407ZM567.309 84.7096C569.647 80.8993 572.678 77.9118 576.401 75.7469C580.211 73.582 584.541 72.4995 589.391 72.4995V91.5939H584.584C578.869 91.5939 574.539 92.9362 571.595 95.6207C568.737 98.3051 567.309 102.981 567.309 109.649V145.5H549.123V73.5387H567.309V84.7096ZM609.433 84.0601C611.771 80.5962 614.975 77.7819 619.045 75.617C623.202 73.4521 627.921 72.3696 633.203 72.3696C639.352 72.3696 644.894 73.885 649.83 76.9159C654.852 79.9468 658.793 84.2766 661.65 89.9053C664.594 95.4475 666.067 101.899 666.067 109.26C666.067 116.62 664.594 123.158 661.65 128.874C658.793 134.502 654.852 138.875 649.83 141.993C644.894 145.11 639.352 146.669 633.203 146.669C627.834 146.669 623.115 145.63 619.045 143.552C615.062 141.387 611.857 138.616 609.433 135.238V145.5H591.248V49.3784H609.433V84.0601ZM647.492 109.26C647.492 104.93 646.582 101.206 644.764 98.0887C643.032 94.8846 640.694 92.4599 637.75 90.8146C634.892 89.1693 631.775 88.3466 628.397 88.3466C625.107 88.3466 621.989 89.2126 619.045 90.9445C616.187 92.5898 613.849 95.0145 612.031 98.2185C610.299 101.423 609.433 105.19 609.433 109.519C609.433 113.849 610.299 117.616 612.031 120.82C613.849 124.024 616.187 126.492 619.045 128.224C621.989 129.869 625.107 130.692 628.397 130.692C631.775 130.692 634.892 129.826 637.75 128.094C640.694 126.362 643.032 123.894 644.764 120.69C646.582 117.486 647.492 113.676 647.492 109.26ZM687.075 84.7096C689.413 80.8993 692.444 77.9118 696.168 75.7469C699.978 73.582 704.308 72.4995 709.157 72.4995V91.5939H704.351C698.636 91.5939 694.306 92.9362 691.361 95.6207C688.504 98.3051 687.075 102.981 687.075 109.649V145.5H668.89V73.5387H687.075V84.7096ZM742.968 146.669C736.04 146.669 729.805 145.154 724.263 142.123C718.721 139.005 714.348 134.632 711.144 129.003C708.026 123.375 706.468 116.88 706.468 109.519C706.468 102.159 708.07 95.664 711.274 90.0352C714.564 84.4065 719.024 80.0767 724.653 77.0458C730.282 73.9283 736.56 72.3696 743.488 72.3696C750.415 72.3696 756.693 73.9283 762.322 77.0458C767.951 80.0767 772.367 84.4065 775.571 90.0352C778.862 95.664 780.507 102.159 780.507 109.519C780.507 116.88 778.819 123.375 775.442 129.003C772.151 134.632 767.648 139.005 761.933 142.123C756.304 145.154 749.982 146.669 742.968 146.669ZM742.968 130.822C746.259 130.822 749.333 130.043 752.19 128.484C755.135 126.839 757.473 124.414 759.205 121.21C760.937 118.006 761.803 114.109 761.803 109.519C761.803 102.678 759.984 97.4392 756.347 93.8021C752.797 90.0785 748.424 88.2167 743.228 88.2167C738.032 88.2167 733.659 90.0785 730.108 93.8021C726.645 97.4392 724.913 102.678 724.913 109.519C724.913 116.36 726.601 121.643 729.979 125.366C733.442 129.003 737.772 130.822 742.968 130.822ZM883.214 73.5387L862.171 145.5H842.557L829.438 95.231L816.319 145.5H796.575L775.402 73.5387H793.847L806.577 128.354L820.345 73.5387H839.57L853.079 128.224L865.808 73.5387H883.214ZM910.2 146.669C904.311 146.669 899.029 145.63 894.352 143.552C889.676 141.387 885.953 138.486 883.182 134.849C880.497 131.212 879.025 127.185 878.765 122.769H897.08C897.427 125.54 898.769 127.834 901.107 129.653C903.532 131.471 906.519 132.381 910.07 132.381C913.533 132.381 916.218 131.688 918.123 130.302C920.115 128.917 921.111 127.142 921.111 124.977C921.111 122.639 919.898 120.907 917.474 119.781C915.135 118.569 911.369 117.27 906.173 115.884C900.804 114.585 896.387 113.243 892.924 111.857C889.546 110.472 886.602 108.35 884.091 105.493C881.666 102.635 880.454 98.7814 880.454 93.932C880.454 89.9486 881.58 86.3116 883.831 83.0209C886.169 79.7303 889.46 77.1324 893.703 75.2273C898.033 73.3222 903.099 72.3696 908.901 72.3696C917.474 72.3696 924.315 74.5345 929.424 78.8643C934.533 83.1075 937.347 88.8662 937.867 96.1402H920.461C920.201 93.2826 918.989 91.0311 916.824 89.3857C914.746 87.6538 911.931 86.7879 908.381 86.7879C905.09 86.7879 902.536 87.394 900.717 88.6064C898.985 89.8187 898.119 91.5073 898.119 93.6723C898.119 96.0969 899.332 97.9588 901.756 99.2577C904.181 100.47 907.948 101.726 913.057 103.025C918.253 104.324 922.539 105.666 925.917 107.051C929.294 108.437 932.195 110.602 934.62 113.546C937.131 116.404 938.43 120.214 938.516 124.977C938.516 129.133 937.347 132.857 935.009 136.148C932.758 139.438 929.467 142.036 925.137 143.941C920.894 145.76 915.915 146.669 910.2 146.669ZM1009.95 107.961C1009.95 110.558 1009.77 112.897 1009.43 114.975H956.821C957.254 120.171 959.073 124.241 962.277 127.185C965.481 130.129 969.421 131.601 974.097 131.601C980.852 131.601 985.658 128.7 988.516 122.898H1008.13C1006.05 129.826 1002.07 135.541 996.179 140.044C990.291 144.461 983.06 146.669 974.487 146.669C967.559 146.669 961.324 145.154 955.782 142.123C950.327 139.005 946.04 134.632 942.923 129.003C939.892 123.375 938.376 116.88 938.376 109.519C938.376 102.072 939.892 95.5341 942.923 89.9053C945.954 84.2766 950.197 79.9468 955.652 76.9159C961.108 73.885 967.386 72.3696 974.487 72.3696C981.328 72.3696 987.433 73.8417 992.802 76.786C998.258 79.7303 1002.46 83.9302 1005.4 89.3857C1008.43 94.7547 1009.95 100.946 1009.95 107.961ZM991.113 102.765C991.027 98.0886 989.338 94.365 986.048 91.5939C982.757 88.7363 978.73 87.3074 973.967 87.3074C969.464 87.3074 965.654 88.693 962.537 91.4641C959.506 94.1485 957.644 97.9155 956.951 102.765H991.113ZM1031.02 84.7096C1033.35 80.8993 1036.38 77.9118 1040.11 75.7469C1043.92 73.582 1048.25 72.4995 1053.1 72.4995V91.5939H1048.29C1042.58 91.5939 1038.25 92.9362 1035.3 95.6207C1032.44 98.3051 1031.02 102.981 1031.02 109.649V145.5H1012.83V73.5387H1031.02V84.7096Z" fill="white"/>
</svg>
